<?xml version="1.0" encoding="UTF-8" standalone="no"?>
<svg
   width="24"
   height="24"
   viewBox="0 0 24 24"
   fill="none"
   stroke="currentColor"
   stroke-width="2"
   stroke-linecap="round"
   stroke-linejoin="round"
   class="lucide lucide-book-open-icon lucide-book-open"
   version="1.1"
   id="svg2"
   sodipodi:docname="logo.svg"
   inkscape:version="1.4.2 (f4327f4, 2025-05-13)"
   xmlns:inkscape="http://www.inkscape.org/namespaces/inkscape"
   xmlns:sodipodi="http://sodipodi.sourceforge.net/DTD/sodipodi-0.dtd"
   xmlns="http://www.w3.org/2000/svg"
   xmlns:svg="http://www.w3.org/2000/svg">
  <defs
     id="defs2" />
  <sodipodi:namedview
     id="namedview2"
     pagecolor="#ffffff"
     bordercolor="#000000"
     borderopacity="0.25"
     inkscape:showpageshadow="2"
     inkscape:pageopacity="0.0"
     inkscape:pagecheckerboard="0"
     inkscape:deskcolor="#d1d1d1"
     inkscape:zoom="32.208333"
     inkscape:cx="12"
     inkscape:cy="12"
     inkscape:window-width="1920"
     inkscape:window-height="991"
     inkscape:window-x="-9"
     inkscape:window-y="-9"
     inkscape:window-maximized="1"
     inkscape:current-layer="svg2" />
  <path
     d="M12 7v14"
     id="path1"
     style="fill:#000000;fill-opacity:0.44575167" />
  <path
     d="M3 18a1 1 0 0 1-1-1V4a1 1 0 0 1 1-1h5a4 4 0 0 1 4 4 4 4 0 0 1 4-4h5a1 1 0 0 1 1 1v13a1 1 0 0 1-1 1h-6a3 3 0 0 0-3 3 3 3 0 0 0-3-3z"
     id="path2"
     style="fill:none" />
  <path
     style="opacity:0.92665;fill:#5c3eba;fill-opacity:1;stroke:#ffffff;stroke-width:0.0779179"
     d="M 11.736093,21.954678 C 11.575058,21.901733 11.406289,21.796862 11.296953,21.681803 11.110999,21.486115 11.050608,21.329755 11.01836,20.960494 10.944517,20.114944 10.570732,19.531195 9.8854531,19.191209 9.4577648,18.979021 9.685449,18.991673 5.9456662,18.972275 L 2.5614489,18.954722 2.3521381,18.873289 C 1.7534145,18.640354 1.3080536,18.185623 1.1091392,17.60414 l -0.069036,-0.201811 -0.00917,-6.799483 C 1.0243234,5.7013338 1.0314158,3.7527359 1.0563423,3.6219901 1.1672471,3.0402654 1.5828918,2.5007566 2.1267788,2.2325585 2.5809,2.0086251 2.4848344,2.0140982 5.7404942,2.0266742 c 2.8177558,0.010884 2.9154691,0.01322 3.2059867,0.076644 0.8930776,0.1949696 1.7027561,0.5973993 2.3468951,1.1664627 0.229887,0.2030926 0.660052,0.6662702 0.660052,0.7107058 0,0.013578 0.02096,0.024688 0.04657,0.024688 0.02561,0 0.04657,-0.011744 0.04657,-0.026098 0,-0.039147 0.399572,-0.4697427 0.644332,-0.6943587 0.608813,-0.5587078 1.460048,-0.9843586 2.362615,-1.1813999 0.290518,-0.063424 0.388231,-0.06576 3.205987,-0.076644 3.261576,-0.012599 3.158512,-0.018562 3.621165,0.2095324 0.547158,0.2697572 0.964522,0.8205917 1.063858,1.4040737 0.02286,0.1343021 0.03033,2.2848686 0.02421,6.9780898 l -0.0088,6.783959 -0.06904,0.201811 c -0.198915,0.581483 -0.644276,1.036214 -1.242999,1.269149 l -0.209311,0.08143 -3.384217,0.01755 c -3.739783,0.0194 -3.512099,0.0067 -3.939787,0.218934 -0.685279,0.339986 -1.059064,0.923735 -1.132907,1.769285 -0.03225,0.369242 -0.09262,0.525567 -0.278593,0.721361 -0.178186,0.187595 -0.382491,0.277458 -0.656475,0.288748 -0.128073,0.0053 -0.267788,-0.0019 -0.310479,-0.01592 z M 10.989311,6.6442432 C 10.83359,5.3542401 9.9415231,4.3708999 8.6313066,4.0449757 8.4551227,4.0011489 8.0835285,3.9932646 5.7050453,3.9828874 L 2.9805951,3.9710007 v 6.5204143 6.520414 l 3.2833118,0.0106 c 2.9318229,0.0095 3.3065781,0.01614 3.5006468,0.06231 0.3633723,0.08645 0.7063273,0.206359 0.9808463,0.342938 l 0.261068,0.129889 0.0092,-5.309185 c 0.0067,-3.8521174 -5.47e-4,-5.3901334 -0.02638,-5.6041398 z m 2.770021,10.5753338 c 0.612732,-0.196835 0.385017,-0.185546 3.976761,-0.197145 l 3.283312,-0.0106 V 10.491415 3.9710007 l -2.72445,0.011887 c -2.920842,0.012744 -2.827524,0.00788 -3.299534,0.1718535 -1.05612,0.3668829 -1.844995,1.3456688 -1.985094,2.462979 -0.02127,0.1696375 -0.03232,2.0849114 -0.03232,5.6024968 v 5.344745 l 0.261272,-0.131127 c 0.1437,-0.07212 0.377724,-0.168536 0.520052,-0.214258 z"
     id="path3" />
</svg>
